<?xml version="1.0" ?><!DOCTYPE svg  PUBLIC '-//W3C//DTD SVG 1.1//EN'  'http://www.w3.org/Graphics/SVG/1.1/DTD/svg11.dtd'><svg enable-background="new 0 0 512 512" height="512px" id="Management" version="1.1" viewBox="0 0 512 512" width="512px" xml:space="preserve" xmlns="http://www.w3.org/2000/svg" xmlns:xlink="http://www.w3.org/1999/xlink"><linearGradient gradientUnits="userSpaceOnUse" id="SVGID_1_" x1="75.3599" x2="335.1046" y1="385.873" y2="126.1284"><stop offset="0" style="stop-color:#00FFFF"/><stop offset="1" style="stop-color:#FF7BAC"/></linearGradient><path d="M357.619,224.09c-4.023-19.31-11.627-37.303-22.082-53.264l18.188-26.078l-37.242-37.24  l-26.078,18.186c-15.959-10.453-33.953-18.058-53.263-22.081l-5.577-31.279h-52.667l-5.577,31.279  c-19.31,4.023-37.302,11.628-53.263,22.081L93.98,107.508l-37.241,37.24l18.187,26.078c-10.454,15.961-18.058,33.954-22.081,53.264  l-31.279,5.577v52.667l31.279,5.576c4.023,19.31,11.627,37.303,22.081,53.264l-18.187,26.078l37.241,37.24l26.078-18.186  c15.96,10.453,33.953,18.057,53.263,22.08l5.577,31.28h52.667l5.577-31.28c19.31-4.023,37.304-11.627,53.263-22.08l26.078,18.186  l37.242-37.24l-18.188-26.078c10.455-15.961,18.059-33.954,22.082-53.264l31.279-5.576v-52.667L357.619,224.09z M205.231,323.397  c-37.223,0-67.398-30.175-67.398-67.397s30.175-67.397,67.398-67.397s67.397,30.175,67.397,67.397S242.454,323.397,205.231,323.397z  " fill="url(#SVGID_1_)"/><linearGradient gradientUnits="userSpaceOnUse" id="SVGID_2_" x1="128.7593" x2="281.7053" y1="332.4736" y2="179.5276"><stop offset="0" style="stop-color:#FF7BAC"/><stop offset="1" style="stop-color:#00FFFF"/></linearGradient><path d="M205.231,147.851c-59.729,0-108.149,48.42-108.149,108.149c0,59.729,48.42,108.148,108.149,108.148  c59.729,0,108.149-48.42,108.149-108.148C313.381,196.271,264.961,147.851,205.231,147.851z M205.231,323.397  c-37.223,0-67.398-30.175-67.398-67.397s30.175-67.397,67.398-67.397s67.397,30.175,67.397,67.397S242.454,323.397,205.231,323.397z  " fill="url(#SVGID_2_)"/><path d="M470.705,334.779c-4.252-6.385-9.604-11.776-15.689-16.021l2.783-12.047l-18.836-8.041l-6.775,10.343  c-7.275-1.459-14.869-1.596-22.422-0.248l-6.547-10.48l-19.006,7.635l2.521,12.096c-6.385,4.25-11.775,9.603-16.02,15.688  l-12.047-2.783l-8.041,18.837l10.342,6.775c-1.459,7.274-1.596,14.869-0.248,22.421l-10.479,6.546l7.633,19.006l12.096-2.521  c4.252,6.385,9.604,11.776,15.689,16.021l-2.783,12.047l18.836,8.041l6.775-10.343c7.275,1.46,14.871,1.595,22.422,0.249  l6.547,10.479l19.006-7.633l-2.521-12.097c6.385-4.251,11.775-9.603,16.02-15.688l12.047,2.783l8.041-18.837l-10.342-6.774  c1.459-7.275,1.596-14.871,0.248-22.422l10.48-6.547l-7.635-19.006L470.705,334.779z M430.107,392.704  c-13.434,5.396-28.695-1.12-34.092-14.553c-5.395-13.433,1.121-28.696,14.553-34.091c13.434-5.396,28.695,1.12,34.092,14.553  C450.055,372.046,443.539,387.309,430.107,392.704z" fill="#3F5EAB"/></svg>